<svg height="52" viewBox="0 0 64 52" width="64" xmlns="http://www.w3.org/2000/svg"><path d="m7.3394959 41.0295176c0-.0247551.00966996-.1493041-.00309438-.2711455-.01121715-.1071431-.04757618-.2115786-.07271807-.3171745-.05299135.1017279-.12377542.1984274-.15510608.3067309-.06846328.2359469-.12261503.4765354-.16941761.7178975-.00889636.0456422.02978346.126483.07039727.1512381.12029425.0727181.21892779.0235947.25644721-.1253226.02978346-.1187471.03945342-.2425225.07349166-.4622239zm38.5011195-12.5109879c0 .2386545-.0054151.3608828.0034812.4823374.0027076.0359722.0475762.0994071.0700105.09786.2467772-.0150852-.042161.0533781.0715577-.1640025.1964934-.3771282.4076853-.7588981.3365144-1.2122256-.0085096-.0549253-.0560857-.1040487-.0854824-.1562664-.0796804.0564725-.2096446.0986335-.2297581.1717384-.0812277.2924194-.1288038.594122-.1663233.7805587zm-40.59524497 6.089751c.04873657.2754003.0653689.4958753.09167117.4970356.22008818.00967.18875753-.2003614.23594691-.3322596.20732384-.5790369.39685495-1.1650362.36900548-1.7901021-.00425478-.0997939-.1071431-.1953331-.16438923-.2924194-.08045403.0866428-.21273901.1624552-.23323932.2614756-.12261503.5983768-.21931458 1.2021688-.29899501 1.6562699zm6.54114437 11.864648c0-.4115533.0088964-.6571701-.0054151-.9012398-.0046416-.0808408-.0707841-.1578136-.1086903-.2363337-.0313307.0495102-.0789069.0951524-.0916712.1489173-.1260962.5287532-.4765354 1.0145717-.3299389 1.592835.0205003.0820012.1609081.1423418.2572208.1903047.0313307.0158588.1365398-.0313306.1435022-.0634349.0626613-.2962874.1110111-.5952824.1349925-.7310486zm-9.55507597-17.4515613c0 .6625853-.00541517.9031738.00386798 1.1429887.00232079.0529914.05608574.1040487.08586921.1558797.08277481-.0595669.20809743-.1017279.24058848-.1817952.13499257-.3322596.26573036-.6703213.34811838-1.0180528.03829302-.1616817-.03133065-.3512128-.06227451-.5264324-.02900987-.1616816-.31910852-.3744207-.39956254-.2978346-.07503885.0711709-.17483279.1582004-.18566314.2475508-.03597223.2978346-.03674583.599924-.03094386.4776958zm23.10036227 6.3906799c0 .3140802-.0139247.437082.0046416.5546686.0139247.0870296.0703973.1674837.1083035.2506453.032491-.0487366.0827748-.0936052.0951523-.1473701.1872104-.8211726.3740339-1.6423452.5422911-2.4677726.0112172-.0553121-.1222282-.1493041-.2015218-.2077106-.0170192-.0123775-.1257095.0452554-.134219.0835484-.1562665.7047463-.3040234 1.4114267-.4146477 1.933991zm36.282445-14.8418338c-.0471893.2560604-.1179734.6192639-.1802479.9840146-.0375194.2181542.1110111.4529407.2309185.3802226.0970864-.0587933.2313053-.1489173.2432961-.239428.0564725-.4258649.1017279-.8567581.1028883-1.2857173.0015472-.4869789.1055959-.9847882-.0928316-1.4601632-.3272312.3941474-.162842.8888623-.2703719 1.328265-.0143115.0591802-.0146983.1222283-.0336515.2928063zm-48.7485643 22.0710922c.0104436.0007736.0208871.001934.0317175.0027076-.0270759.3616563-.0618877.7229259-.0738785 1.0853558-.0023208.0761992.0792937.1554929.1222283.2332393.0413874-.0429346.1017279-.07852.1218414-.1295774.3090518-.7882947.5330079-1.598637.5890937-2.4468854.0131511-.1976539-.1148791-.3202689-.3152406-.346958-.2583812-.0344251-.3051838.1848895-.3318728.3415428-.0703973.4165817-.0990204.8397389-.143889 1.2605753zm6.7005053-.0232079c-.0003868.0073492.0162455-.1752195.0139247-.3574015-.0015472-.1199074-.0301702-.2394281-.0464158-.3589487-.0518309.0800672-.1315113.1535589-.1520116.2409753-.2487113 1.065629-.4923942 2.1328052-.7260203 3.2015287-.0235947.1090771.0185663.2363337.046029.3512127.013538.0553122.084322.149691.0947656.1454362.1067563-.0452554.2293713-.0870296.3013158-.1698044.0742652-.0850956.122615-.2115787.1377001-.3260709.1090771-.8451541.2069371-1.6922422.3307125-2.7269274zm40.6660291-24.5183644c0 .1643892-.0162456.2904854.0050283.4096193.0162456.0908975.0796805.1732855.1222283.2595415.0413874-.0433214.0982467-.0796804.122615-.1315113.4591295-.9654484.5925749-2.0005203.6413114-3.0526115.0027076-.0537649-.0321042-.1183602-.0688501-.1616816-.0293966-.034425-.0905107-.0634349-.1334453-.0587933-.0553122.0061887-.1373134.0351986-.1551061.0769728-.3705527.8610128-.3604959 1.7970645-.5337815 2.6584641zm-26.4171569 12.6459804c.0081228.0003868.0162455.0003868.0243683.0007736 0 .4258648-.0027076.8517296.003868 1.2779813.0007736.0471893.0545385.0936051.0835484.1407945.0506705-.0348118.1318982-.0591801.1465965-.1052091.1137187-.3485052.2343997-.6966236.3144669-1.0536383.1469834-.6525286.2699852-1.3104723.3960814-1.9676425.0235947-.122615-.2788815-.2986082-.4103929-.2487112-.2367205.0905108-.4517803.2258901-.4776958.4931677-.046029.4858185-.0560857.9747315-.0808408 1.462484zm1.0927049 5.2987486c0-.7824928.0030944-1.2764341-.0034812-1.7703754-.0007736-.0545385-.0433214-.1230018-.0878032-.1570401-.0212739-.0162455-.128417.0243683-.1361529.0545386-.2707588 1.0718178-.5357155 2.1451828-.7968043 3.2197082-.0139248.0564726.0116039.1214547.0150851.1825688.0073492.1237754.3314861.2622492.4622239.1841159.2096446-.124549.4521671-.2402017.4757618-.5225643.0406138-.4916206.0595669-.9855619.0711708-1.1909517zm7.0992942-8.268972h.0259155c0 .5469327-.001934 1.0942521.0034812 1.6411848.0003868.0491233.046029.0974731.0707841.1462097.0510573-.0332646.1369265-.0576329.1481437-.1009543.3013158-1.1778006.5956692-2.3571483.8873151-3.5372696.0135379-.0556989.0139247-.1450493-.0193399-.17638-.0800673-.0761992-.1868236-.1833423-.2777212-.1787007-.5438382.0270758-.8269745.2839098-.8362577.7441997-.0096699.4869789-.0023208.9747315-.0023208 1.4617104zm2.8189853 3.867982c0-.3659111.0034812-.7944835-.0027075-1.2226691-.0015472-.1148791-.0317175-.2297581-.0487366-.3442504-.0673029.0943788-.1682572.1798612-.1961067.2846835-.3260709 1.2393014-.645953 2.4801501-.9499764 3.7248667-.0197267.0812276.0870296.2661171.1616817.2823627.1636156.0359722.3782886.0498969.5086396-.0301703.136153-.0839352.2591548-.2800419.2812023-.4417235.1005675-.7264071.162842-1.4578425.2460036-2.2530996zm-24.3508808 12.5291674c.0220475.1895311.0212739.2521924.038293.3098254.0170191.0584065.0514442.1117847.07852.1670968.0982468-.0475762.2688248-.0792936.2835231-.1458229.1465965-.6560098.2955138-1.3143403.389119-1.9796332.214673-1.5247585.6064996-3.0255356.6300943-4.5758228.0007736-.0553121-.0433214-.1113978-.0665293-.1670968-.0746521.0502838-.2022955.0893504-.2158334.1527853-.2545132 1.2060368-.5121208 2.4113-.734143 3.6235256-.1663232.9082022-.2831363 1.8256875-.4030437 2.6151426zm28.4934896-6.317575c0 .3531467-.0027076.8432201.0042548 1.3332934.0003868.0533781.0471894.1349926.0912844.1504645.0386798.0135379.1431153-.0390666.151238-.0765861.5128945-2.397762 1.0207605-4.7966845 1.5224378-7.1963805.0235947-.1133319.0015472-.2405885-.0189531-.3577884-.0278495-.1640024-.1210679-.1825687-.2746268-.1419549-.6246791.164776-.887315.6030184-.9495895 1.2048764-.1701913 1.6473735-.3407693 3.2947471-.5260456 5.0840756zm-8.0987808-5.9973062c.044095-1.0060621.0808408-1.8643673.1206811-2.7226725.0054151-.1222282.026689-.2440697.0355854-.3662979.0116039-.1624553-.046029-.2425225-.1535589-.2053899-.0510574.017406-.1137187.0742653-.1253226.1241623-.5388099 2.2623827-1.073365 4.5255389-1.6040522 6.7898556-.0328778.1404078.2177674.3071178.3906662.2730796.9743447-.1910784 1.1928857-.4042042 1.2381411-1.2803021.0471894-.9194193.0696237-1.8399991.0978599-2.6124351zm-8.5095604 3.661045c.0274626.001934.0549253.003868.0827748.005802.072718-1.0373928.1496909-2.0747856.2131258-3.1129519.0065756-.1075299-.0549254-.308665-.1036619-.3148538-.2169938-.0270758-.3252973.1609081-.3779019.3268445-.6854064 2.1614284-1.037006 4.4017636-1.5437116 6.6053529-.0282363.1230018.2688247.3229765.4026569.2815891.8544373-.262636 1.1039221-.5554422 1.1685174-1.4079454.0599537-.7940968.1059827-1.5889671.1582005-2.3838374zm3.6560166-2.0759459c0 1.1023748-.0015472 2.0840687.0042548 3.0661493.0003867.0452554.0564725.1179735.0990203.128417.0518309.0123776.1539457-.0112171.1698044-.0471894.1462097-.3345804.3164009-.6649061.4084589-1.0153452.565499-2.1478905.9217401-4.3344607 1.1542058-6.5415312.0514442-.4873658.0820013-.9778259.0928316-1.4675124.0011604-.0723313-.1636156-.216607-.2448433-.2115786-.75503.0452553-1.2203483.4266384-1.2737264 1.0489967-.1465966 1.7181576-.2804287 3.4374756-.4100061 5.0395938zm-21.8053619 13.4876533c.0247551.389119.0181795.7631529.0858692 1.1228752.028623.1508513.2138994.2723059.3276181.4072985.126483-.1276434.281589-.2374941.3705526-.3867982.0912844-.1543325.1268698-.345024.1728988-.523338.6973972-2.6870871 1.0814878-5.4321939 1.4887863-8.1726592.0259155-.174446-.0116039-.3620431-.0406138-.5399703-.0235947-.1435021-.1357662-.1964935-.2835231-.1438889-.5488666.1957199-.95075.5113472-1.0899973 1.1294507-.5283664 2.3494123-.8099555 4.732476-1.0315908 7.1070302zm44.0021635-25.9522254c0-.306731.0143116-.6150092-.0085095-.9201929-.0065756-.093992-.0986336-.2363337-.1779272-.2568341-.0955391-.0251418-.2506452.0228211-.3249105.0955392-.2672775.2622492-.429346.5798105-.4908469.9627407-.1752196 1.0911578-.3396088 2.1854099-.5720745 3.2649637-.4904602 2.2805622-1.0234681 4.552228-1.5286265 6.8296958-.015472.0703973.07852.1690308.1346057.2444565.0061888.0081228.1191339-.036359.1531721-.0796804.645953-.824267 1.2454902-1.6632323 1.4253514-2.7427861.1001807-.6026316.3415428-1.1797345.4877525-1.7757905.4533275-1.849669.8973719-3.7020456.9020134-5.6221119zm-21.6928036-17.75790552c-.112945.09824675-.17638.12841701-.1961067.17715358-.0220475.05221776-.026689.13537937.0007736.18102156.35276.5805841.7233127 1.15111145 1.0679499 1.73672393.3759678.63860383.760832 1.27566047 1.0869029 1.94056658.4718938.96196714.2309186 1.5297869-.7364638 1.87906567-.1744459.06266131-.3485051.12841701-.5264323.17986117-2.7892018.81188943-5.5540354 1.69572333-8.3095858 2.61939743-2.934638.983241-5.7953975 2.1471168-8.6778177 3.2568409-1.4980694.5767161-2.9226472 1.3410293-4.4083391 1.9525573-2.6395109 1.0872897-5.125463 2.4650649-7.57428241 3.9128506-1.76147902 1.0420344-3.38912586 2.2755338-4.85973263 3.70514-.41851565.4069117-.46725223.6614249-.15626647 1.1433755.40110974.6211979.83200293 1.2261503 1.28571723 1.8102156 1.74484669 2.2472975 3.50323132 4.4837648 5.25736117 6.7237131.95307081 1.2168672 1.90691511 2.4329607 2.86230671 3.6478939.2900986.3690055.5566026.4285724.9519104.1752196.7287278-.4668654 1.4319269-.9735711 2.1676171-1.4292194 5.1026419-3.1601413 10.3000493-6.1555066 15.713677-8.7509225 3.6799981-1.7641866 7.412214-3.4243245 11.400877-4.3998296.7793984-.1906915 1.5684667-.3423164 2.3567615-.4935545.6173299-.118747 1.1019881.1442757 1.4323137.6413114.2363337.3558544.4038173.7596717.5809709 1.1511115.3821566.8447673.7279542 1.7065537 1.1344792 2.5389434.2131258.4363084.3202689.9464952.7445865 1.2617357.567433-.1191338.6227451-.691982.8965982-1.0559591.9302497-1.2338862 1.815244-2.5025843 2.6967571-3.772056 1.3406426-1.9297363 2.6662-3.8695293 3.9933046-5.8085487 1.397502-2.0415209 2.7911359-4.0861362 4.1801282-6.1334591.1717384-.2537396.306731-.5322343.4525539-.8026062.0715577-.1318982.0309439-.2460037-.1137186-.3051838-.3407693-.1404078-.6776705-.2955138-1.0292701-.4038173-4.4895667-1.38203002-8.9822278-2.75206925-13.4714078-4.13564642-2.7756639-.85521083-5.545139-1.72898797-8.3188689-2.59000077-.6409247-.19920107-1.2884248-.37906224-1.8852545-.55389503zm-1.2443298-2.41864916c.2251166.34734479.6181035.39569456.9604199.50245087 3.4204566 1.06601584 6.8451678 2.11849375 10.2694923 3.17174526 4.6651732 1.43463453 9.3307331 2.86849547 13.9974534 4.29810163.7677944.23517331 1.5471928.43321399 2.3126665.67496287.5109604.16168164.8455408.5361023.9310232 1.06176105.0785201.485045.1044356.9824674.1079167 1.4748616.0127644 1.7931964-.0065755 3.5871665.0123776 5.3807498.0096699.9267685.0526045 1.8543105.1191338 2.7791451.0885768 1.2350466-.2576076 2.2995153-1.0520911 3.2591616-.7082275.8555976-1.3626901 1.7591582-1.9958787 2.6727756-.348892.5036113-.6374435 1.0563459-.8965983 1.6133353-.3674582.7886815-.7747568 1.5208905-1.4060114 2.1548528-.6045656.6072732-1.0911577 1.3383218-1.5905142 2.0422945-.7871344 1.1093372-1.5402305 2.2430428-2.3111193 3.363984-1.3313594 1.9355382-2.6615584 3.8722368-4.0010406 5.801973-.2456169.3535336-.5051585.7070671-.8103422 1.0076093-.5566027.5480931-1.5092866.4339876-1.9421138-.2309185-.2340129-.3597223-.4111665-.7604453-.5856125-1.1549794-.5508006-1.2427827-1.0818746-2.4944616-1.633062-3.7372443-.3434768-.77437-.5910277-.9159381-1.4574556-.7523225-.6660665.1260962-1.332133.2839099-1.9742181.4997433-4.2826297 1.4377289-8.43955 3.1585941-12.474242 5.2132662-4.9119504 2.5010372-9.6405584 5.3014562-14.2918068 8.2446037-.4699598.2974478-.9418536.5948956-1.4327006.8536636-.8745507.4614503-1.6906949.2792683-2.3950544-.3543071-.3643639-.3280049-.661425-.7333694-.9697031-1.119394-2.43180032-3.0441019-4.85509107-6.0943925-7.28921216-9.1357868-.61810353-.772436-1.26521692-1.5212773-1.90111316-2.2794018-.57130095-.6807648-.94920279-1.422257-.94108003-2.3509595.00696236-.8076346-.10095433-1.6098541-.63550945-2.279015v-6.3125467c.44288394-.2220221.59025406-.6389906.60688638-1.075299.03287785-.8768715.48968653-1.5212773 1.08187457-2.0825215.80686106-.7643132 1.61642969-1.5305605 2.48015008-2.2283444 3.00503524-2.4271588 6.45643557-4.1031554 9.89893957-5.7857276.9979394-.4877525 2.0426814-.8791923 3.0491303-1.3506993 2.8000322-1.3124063 5.6959903-2.3911865 8.598524-3.4374756 3.1353863-1.1302244 6.2796689-2.25077876 9.5036319-3.11914073.2978346-.08006722.5875464-.1918519.8788055-.29512702.3566279-.12648302.4869789-.40227014.2982214-.71248229-.5140548-.84360688-1.0470627-1.67522302-1.5742687-2.51109394-.4285724-.67921764-.8683619-1.35147292-1.2857172-2.03726613-.2452301-.40227013-.2104182-.82658776-.0061888-1.24007504.0820012-.16554963.1736724-.32645768.260702-.48891293z" fill-rule="evenodd"/></svg>